<svg height="512" viewBox="0 0 64 64" width="512" xmlns="http://www.w3.org/2000/svg"><path d="m62 1h-60a1 1 0 0 0 -.707 1.707l60 60a1 1 0 0 0 1.707-.707v-60a1 1 0 0 0 -1-1zm-1 58.586-56.586-56.586h3.586v1a1 1 0 0 0 2 0v-1h3v2a1 1 0 0 0 2 0v-2h3v1a1 1 0 0 0 2 0v-1h3v2a1 1 0 0 0 2 0v-2h3v1a1 1 0 0 0 2 0v-1h3v2a1 1 0 0 0 2 0v-2h3v1a1 1 0 0 0 2 0v-1h3v2a1 1 0 0 0 2 0v-2h3v1a1 1 0 0 0 2 0v-1h3v2a1 1 0 0 0 2 0v-2h6v6h-2a1 1 0 0 0 0 2h2v3h-1a1 1 0 0 0 0 2h1v3h-2a1 1 0 0 0 0 2h2v3h-1a1 1 0 0 0 0 2h1v3h-2a1 1 0 0 0 0 2h2v3h-1a1 1 0 0 0 0 2h1v3h-2a1 1 0 0 0 0 2h2v3h-1a1 1 0 0 0 0 2h1v3h-2a1 1 0 0 0 0 2h2v3h-1a1 1 0 0 0 0 2h1z"/><path d="m55 14a5.006 5.006 0 0 0 -5-5h-20.029a5 5 0 0 0 -3.536 8.536l20.03 20.029a4.931 4.931 0 0 0 3.5 1.477 5.076 5.076 0 0 0 1.944-.393 4.923 4.923 0 0 0 3.091-4.619zm-2 20.03a3 3 0 0 1 -5.121 2.121l-20.03-20.029a3 3 0 0 1 2.122-5.122h20.029a3 3 0 0 1 3 3z"/><path d="m56 49h-1a1 1 0 0 0 0 2h1a1 1 0 0 0 0-2z"/><path d="m13.515 18.908a.992.992 0 0 0 -.433-.254l-9.9-2.829a1 1 0 0 0 -1.237 1.237l2.829 9.9a1.009 1.009 0 0 0 .255.433l33.234 33.233a5.007 5.007 0 0 0 7.071 0l1.414-1.414a5.006 5.006 0 0 0 0-7.071zm24.04 38.184-.707-.707 5.657-5.657.707.707zm-31.324-32.315-.64-2.237a.94.94 0 0 0 .145-.1l2.828-2.828a.991.991 0 0 0 .1-.145l2.237.639zm.269-5.924-1.526 1.525-.611-2.135zm19.035 26.218-18.385-18.385 5.657-5.657 28.285 28.285-5.657 5.657-9.895-9.9zm19.799 12.729-1.414 1.413a3.005 3.005 0 0 1 -4.243 0l-.708-.707 5.657-5.657.707.707a3.005 3.005 0 0 1 .001 4.244z"/><path d="m12.393 24.858a1 1 0 1 0 -1.414 1.414l21.375 21.374a1 1 0 0 0 1.414-1.414z"/><path d="m36.142 51.435a1 1 0 1 0 1.414-1.414l-.707-.707a1 1 0 1 0 -1.414 1.414z"/></svg>